<svg xmlns="http://www.w3.org/2000/svg" viewBox="0 0 1000 360"><style>.t{font:600 22px Arial;fill:#e8f1f0}.s{font:18px Arial;fill:#9fb3b1}.a{stroke:#718482;stroke-width:2}.c{fill:none;stroke:#15949a;stroke-width:6;stroke-linecap:round}.o{stroke:#e4773e;stroke-width:3;fill:none}</style><rect width="1000" height="360" rx="18" fill="#111517"/><text class="t" x="55" y="48">Mechanical system — terminal velocity</text><circle cx="220" cy="175" r="32" fill="#202a2d" stroke="#15949a" stroke-width="4"/><line class="o" x1="220" y1="210" x2="220" y2="285"/><path d="M212 273l8 15 8-15" fill="#e4773e"/><text class="s" x="238" y="275">mg</text><line class="o" x1="220" y1="140" x2="220" y2="85"/><path d="M212 98l8-15 8 15" fill="#e4773e"/><text class="s" x="238" y="105">drag bv</text><text class="s" x="110" y="325">Falling through air</text><line class="a" x1="535" y1="290" x2="930" y2="290"/><line class="a" x1="535" y1="290" x2="535" y2="75"/><text class="s" x="510" y="75">v</text><text class="s" x="935" y="300">t</text><line class="a" x1="535" y1="110" x2="930" y2="110" stroke-dasharray="8 8"/><text class="s" x="865" y="100">v∞</text><path class="c" d="M555 275 C610 210 660 158 725 132 C790 112 850 110 915 110"/><text class="t" x="665" y="48">Velocity response</text></svg>