<svg xmlns="http://www.w3.org/2000/svg" viewBox="0 0 1000 360"><style>.t{font:600 22px Arial;fill:#e8f1f0}.s{font:18px Arial;fill:#9fb3b1}.a{stroke:#718482;stroke-width:2}.c{fill:none;stroke:#15949a;stroke-width:6;stroke-linecap:round}.w{fill:none;stroke:#15949a;stroke-width:4}</style><rect width="1000" height="360" rx="18" fill="#111517"/><text class="t" x="55" y="48">Electrical system — RC charging</text><path class="w" d="M70 190h55m0 0 18-18m-4 18h38m0 0 12-20 24 40 24-40 24 40 12-20h55m0-45v90m18-90v90m0-45h55v70H70v-70"/><line class="w" x1="85" y1="150" x2="85" y2="230"/><line class="w" x1="70" y1="165" x2="100" y2="165"/><line class="w" x1="76" y1="215" x2="94" y2="215"/><text class="s" x="190" y="145">R</text><text class="s" x="318" y="130">C</text><text class="s" x="55" y="275">Supply switched on at t = 0</text><line class="a" x1="535" y1="290" x2="930" y2="290"/><line class="a" x1="535" y1="290" x2="535" y2="75"/><text class="s" x="510" y="75">V</text><text class="s" x="935" y="300">t</text><line class="a" x1="535" y1="105" x2="930" y2="105" stroke-dasharray="8 8"/><text class="s" x="875" y="95">Vₛ</text><path class="c" d="M555 275 C610 210 660 155 725 130 C790 108 850 106 915 105"/><text class="t" x="665" y="48">Capacitor voltage</text></svg>